<?xml version="1.0" encoding="utf-8"?>
<!-- Generator: Adobe Illustrator 21.1.0, SVG Export Plug-In . SVG Version: 6.00 Build 0)  -->
<svg version="1.1" id="Layer_1" xmlns="http://www.w3.org/2000/svg" xmlns:xlink="http://www.w3.org/1999/xlink" x="0px" y="0px"
	 viewBox="0 0 399 191" style="enable-background:new 0 0 399 191;" xml:space="preserve">
<style type="text/css">
	.st0{fill:#F7931E;}
	.st1{fill:#FFFFFF;}
</style>
<path class="st0" d="M192,2c-3.5,3.5-7,11.7-7,16.4c0,6.2,1.1,8.6,7.1,15.2c8.8,9.8,9.2,12.9,2.8,24c-2.9,5.1-3,5.7-1.6,7.2
	c1.5,1.4,1.8,1.4,3.6-0.2c1-0.9,3.3-4.3,5-7.5c5.3-9.9,4-17.1-4.7-26.4c-8.5-9.1-8.9-11.3-3.6-21.2c3.3-6.4,3.8-9.5,1.4-9.5
	C194.5,0,193.1,0.9,192,2z"/>
<path class="st0" d="M165.1,17.4c-4.5,4.8-3.6,13.1,1.8,18c2.5,2.3,2.6,4.4,0.5,9c-1.8,3.6-1.3,7.1,0.9,6.4
	c2.5-0.9,5.7-7.1,5.7-11.3c0-3.3-0.8-5.2-3.6-8.8l-3.6-4.6l2.1-4.2C172.3,15.4,169.7,12.4,165.1,17.4z"/>
<path class="st0" d="M218,18c-1.2,1.7-2.4,4.8-2.7,6.8c-0.4,3.1,0.1,4.4,3.1,8.4c4.1,5.3,4.3,6.3,1.9,11.3c-1.6,3.3-1.6,3.6,0.1,5.3
	c1.6,1.6,1.8,1.6,3.6-0.8c2.8-3.5,4.3-8.7,3.5-11.7c-0.3-1.4-1.9-4.2-3.6-6.2c-3.3-4-3.6-5.9-1.3-10.2C225.6,15,221.8,12.7,218,18z"
	/>
<path class="st1" d="M17.5,38.7C12.1,44.9,0,61.4,0,62.7c0,0.7,1.9,1.7,4.3,2.3c12.5,3.3,21.1,7.5,26.1,13c1.9,2.1,4.8,7.4,6.6,12.1
	c7.2,18.6,12.3,25.7,24.6,33.8c12.7,8.3,41.2,16.5,51,14.6c4.2-0.7,9.4-5.4,9.4-8.3c0-1.1-1.1-3.3-2.4-4.9c-1.3-1.5-2.7-3.9-3.1-5.3
	s-4.1-5.8-8.2-9.8c-5.7-5.6-9.7-8.4-17.3-12.2c-5.5-2.7-10.4-5.8-10.9-6.8s-1.6-6.9-2.5-13.2c-2.1-16.1-3.9-21.3-9.2-27
	c-6.8-7.3-12.5-9.9-24.1-11c-5.4-0.5-12.1-1.8-15.1-2.9C22.2,34.3,21.4,34.4,17.5,38.7z M30.2,40.9c2.9,1.1,8.9,2.1,13.4,2.4
	C63,44.5,71.4,53.7,74,76.6c1.4,12.6,2.4,16.3,6.7,24.5c4.1,7.9,4.1,10.3-0.4,10.7c-4.9,0.5-9.2-4.1-15.5-16.6c-3-5.9-5.7-11.7-6-13
	C58.4,81,57.6,80,57,80c-2.2,0-0.3,10.9,3.1,17.8c3.8,7.8,13.2,17.7,18,19c4.4,1.2,8.8-0.3,10-3.5c0.6-1.7,0.4-4-1-8.1
	c-1.1-3.1-1.8-5.8-1.7-5.9s3.1,1.1,6.7,2.8c7.5,3.5,11.1,6.6,10.4,8.8c-0.3,1.2,0.9,2.3,4.4,3.9c5.6,2.5,7.5,5.7,4.5,7.9
	c-2,1.5-2.1,1.3,2.9,3.6c7.1,3.2,3.5,8.7-5.8,8.7c-7.8,0-27.9-5.6-38.3-10.6c-15.5-7.5-22.1-15.5-29.7-36.2
	c-4.9-13.3-11.8-19.5-27-24.3C9.4,62.6,6,61.1,6,60.7c0-0.5,1.9-3.4,4.3-6.5s5.8-7.8,7.6-10.5C21.5,38.4,22.5,38.1,30.2,40.9z"/>
<path class="st1" d="M366.5,36.7c-2.2,0.8-8.5,1.9-13.9,2.4c-12.2,1.1-18.6,3.8-25.5,10.7c-5.8,5.8-8.1,12.2-10.6,29
	c-0.8,5.6-1.9,11-2.4,12s-3.6,3.1-6.8,4.6c-3.2,1.5-7.8,3.8-10.2,5c-2.4,1.1-7.1,4.7-10.3,7.8c-3.2,3.2-6.3,5.8-6.9,5.8
	c-0.5,0-2.1,2.4-3.3,5.3c-1.3,2.9-3.1,5.9-4,6.6c-2.3,1.9-2,6.4,0.7,8.9c5,4.7,11.2,5.3,25.2,2.2c21-4.7,34.7-11.1,44.3-20.8
	c6.4-6.5,6.8-7.1,17.5-30.4c3.1-6.6,4.3-8.2,8.9-11.2c4.9-3.2,21.6-9.6,25.1-9.6c4,0,2.9-2.1-12.8-22.8
	C375.8,34.7,373.6,33.9,366.5,36.7z M377.8,43c1.5,2.2,4.8,6.9,7.5,10.5c2.6,3.5,4.7,6.8,4.7,7.4c0,0.5-3.3,1.9-7.2,3.1
	c-17.7,5.4-22.7,10.1-30.2,28.9c-2.5,6.2-6.3,13.7-8.5,16.6c-4.6,6.1-16.2,14.3-24.8,17.5c-9,3.4-24.1,7.1-31.4,7.7
	c-7.4,0.6-12.9-1.3-12.9-4.7c0-2.1,3.5-5,6.2-5c2.3,0,2.3-0.9,0.1-2.5c-2.8-2-0.3-5.9,5.1-8.1c3.5-1.4,4.6-2.4,4.6-4.1
	c0-1.3,1.2-3,3-4.3c3.2-2.3,14-7.3,14.6-6.7c0.2,0.2-0.6,2.7-1.8,5.5c-2.6,6.2-1.8,9.9,2.6,12c4.3,2.1,10.3-0.6,16.6-7.5
	c6.3-6.9,9.8-12.8,11.6-19.5c3.6-13.5,1-12.8-6,1.7c-6.9,14.2-12.7,20.8-17.7,20.3c-4.9-0.4-4.8-2.5,0.5-13.1
	c3.9-8,4.7-10.7,6.1-20.8c2.1-15.7,3.7-20.2,9.9-26.5c5.9-6.1,12-8.4,22.5-8.5c3.8,0,8.8-0.9,11.6-1.9
	C372.5,38.1,374.6,38.4,377.8,43z"/>
<path class="st0" d="M105.7,83.7c-1.7,1.7-0.1,4.2,8.8,13.3c5.2,5.4,9.6,10.4,9.7,11.2c0.1,0.7,0.2,3.3,0.2,5.8
	c0.1,4.1,0.3,4.5,3.1,5c2.6,0.5,3.1,1.1,4,5.2c0.5,2.6,2.1,5.8,3.4,7.2l2.4,2.6h57.8h57.7l2.6-3.1c1.4-1.7,2.6-4.3,2.6-5.8
	c0-3.5,1.9-5.9,5-6.3c2.3-0.3,2.5-0.6,2.2-5.1c-0.4-5.9,0.3-7,11.4-18.8c4.7-4.9,8.4-9.5,8.1-10.2c-0.3-0.9-20.5-1.3-89.4-1.5
	C146.4,83.1,106,83.3,105.7,83.7z M267.2,94.7c-4.9,4.6-9.1,11.8-9.2,15.5c0,1.7-3.7,1.8-62.9,1.8h-62.9l-0.7-3.3
	c-1.2-5.1-3.4-8.7-8.7-13.9l-4.9-4.8H195h77.2L267.2,94.7z M251.8,122.6c0.2,1.2-0.4,2.9-1.3,3.8c-1.5,1.4-7.1,1.6-55.1,1.6
	c-35,0-54.2-0.4-55.5-1c-1.8-1-2.6-5-1.2-6.3c0.3-0.4,25.9-0.6,56.7-0.5l56.1,0.3L251.8,122.6z"/>
<path class="st1" d="M10.3,149.1c-7.4,3.6-9.4,12.9-4.2,18.6c1.3,1.3,4.9,3.3,8,4.4c6.9,2.6,9.8,5.2,8.3,7.7
	c-2.1,3.2-5.8,3.7-10.5,1.4L7.5,179l-2.9,2.9c-1.7,1.7-2.5,3.4-2.1,4.1c1.4,2.3,9,5,14.3,5c10,0,16.2-5.2,16.2-13.7
	c0-5.9-3.4-9.5-12.1-12.8c-6.4-2.5-7-2.9-6.7-5.3c0.4-3.7,4.6-4.9,9.3-2.6c3.6,1.7,3.6,1.7,6.6-1.1c1.6-1.6,2.9-3.3,2.9-3.7
	c0-0.5-1.9-1.8-4.2-2.8C23.1,146.4,15.6,146.5,10.3,149.1z"/>
<path class="st1" d="M40,169v21h5h5v-8.5V173h7.9c9.2,0,9.1-0.1,9.1,10.1v6.9h5h5v-21v-21h-5h-5v6.7c0,3.8-0.4,7.4-0.9,8.1
	c-0.5,0.9-2.9,1.2-8.2,1l-7.4-0.3l-0.3-7.8l-0.3-7.7H45h-5V169z"/>
<path class="st1" d="M97.1,150.2c-0.5,1.3-4.3,10.4-8.5,20.3c-4.2,9.9-7.6,18.3-7.6,18.7c0,0.5,2.4,0.8,5.3,0.8c5.4,0,5.4,0,7-4
	l1.5-4h8.1h8.1l1.6,4c1.6,4,1.7,4,7,4c3.7,0,5.4-0.4,5.4-1.3c-0.1-0.6-3.8-10-8.3-20.7l-8.2-19.5l-5.3-0.3
	C98.5,147.9,97.9,148.1,97.1,150.2z M105.7,167c2.2,5.8,2.2,5.9,0.2,6.5c-1.1,0.4-3.3,0.4-4.9,0l-2.9-0.6l2.2-6
	c1.1-3.2,2.4-5.9,2.7-5.9C103.3,161,104.6,163.7,105.7,167z"/>
<path class="st1" d="M129,169v21h5h4.9l0.3-8.3c0.4-10.8,1.9-10.8,7.8,0l4.5,8.3h5.8c3.1,0,5.7-0.3,5.7-0.8c0-0.4-2.3-4.3-5.1-8.7
	c-4.4-7.2-4.8-8.1-3.2-9c8.8-5.1,9.2-16.4,0.8-21.2c-3.5-2-5.4-2.3-15.2-2.3H129V169z M148.8,157.6c4.7,3.3,0.7,8.9-6,8.2
	c-2.9-0.3-3.3-0.7-3.6-3.6c-0.2-1.9-0.1-4,0.2-4.8C140.1,155.5,146,155.6,148.8,157.6z"/>
<path class="st1" d="M169,169v21.1l14.8-0.3l14.7-0.3v-4v-4l-9.7-0.3l-9.8-0.3V177v-4h8.5h8.5v-4.5V164h-8.5H179v-3.5V157h9h9v-4.5
	V148h-14h-14V169z"/>
<path class="st1" d="M230.7,149.2c-0.3,0.7-4.1,9.9-8.6,20.5s-8.1,19.5-8.1,19.8s2.4,0.5,5.4,0.5c5.3,0,5.4,0,7-4l1.6-4h8.1h8.1
	l1.5,4l1.6,4h5.8h5.8l-6.5-15.8c-3.6-8.6-7.5-18.1-8.7-20.9l-2.2-5.3h-5.1C233.2,148,231,148.5,230.7,149.2z M238.8,167l2.1,6H236
	h-4.9l2.2-6c1.2-3.3,2.5-6,2.9-6C236.5,161,237.7,163.7,238.8,167z"/>
<path class="st1" d="M276,169v21h11.2c16.4,0,21.8-3.2,21.8-12.7c0-2.7-0.8-4.3-3.2-6.7l-3.3-3.1l2.3-2.2c3-3,3.1-10.4,0.2-13.3
	c-3.3-3.3-6.5-4-18.1-4H276V169z M295.1,157c2.9,1.6,2.5,5.8-0.8,7.1c-4.6,1.7-7.8,0.8-8.1-2.4c-0.2-1.6-0.1-3.5,0.2-4.3
	C287,155.8,292.3,155.5,295.1,157z M297.5,174c4,3.4-0.6,8.4-7.2,7.8c-3.5-0.3-3.8-0.6-4.1-3.6c-0.6-5.6,0.2-6.5,5.3-6
	C294,172.5,296.7,173.3,297.5,174z"/>
<path class="st1" d="M316,169v21h5h5v-21v-21h-5h-5V169z"/>
<path class="st1" d="M331,152.5v4.5h6h6v16.5V190h5h5v-16.5v-16.4l5.8-0.3l5.7-0.3l0.3-4.3l0.3-4.2h-17H331V152.5z"/>
<path class="st1" d="M369.4,149.3c-0.2,0.7-0.3,10-0.2,20.7l0.3,19.5l14.8,0.3l14.7,0.3v-4.6V181h-9.5H380v-4v-4h8.5h8.5v-4.5V164
	h-8.5H380v-3.5V157h9h9v-4.5V148h-14C373.5,148,369.8,148.3,369.4,149.3z"/>
</svg>
